<?xml version="1.0" encoding="UTF-8" standalone="no"?><!DOCTYPE svg PUBLIC "-//W3C//DTD SVG 1.1//EN" "http://www.w3.org/Graphics/SVG/1.1/DTD/svg11.dtd"><svg width="100%" height="100%" viewBox="0 0 1920 300" version="1.1" xmlns="http://www.w3.org/2000/svg" xmlns:xlink="http://www.w3.org/1999/xlink" xml:space="preserve" xmlns:serif="http://www.serif.com/" style="fill-rule:evenodd;clip-rule:evenodd;stroke-linejoin:round;stroke-miterlimit:2;"><rect id="GESIS-Banner-06" x="0" y="0" width="1920" height="300" style="fill:url(#_Linear1);"/><clipPath id="_clip2"><rect id="GESIS-Banner-061" serif:id="GESIS-Banner-06" x="0" y="0" width="1920" height="300"/></clipPath><g clip-path="url(#_clip2)"><path d="M1519.08,109.97l-429.771,429.835l-429.84,-429.775l429.776,-429.835l429.835,429.775Z" style="fill:#003c78;fill-opacity:0.2;"/><path d="M1028.05,174.235l-429.772,429.835l-429.839,-429.775l429.775,-429.836l429.836,429.776Z" style="fill:#003c78;fill-opacity:0.2;"/><path d="M1723.92,270.138l-75.554,75.566l-75.564,-75.555l75.554,-75.566l75.564,75.555Z" style="fill:#003c78;fill-opacity:0.13;"/><g><path d="M648.294,-267.429c356.66,91.392 572.025,455.149 480.637,811.809c-91.392,356.656 -455.149,572.021 -811.808,480.633c-356.657,-91.388 -572.022,-455.149 -480.634,-811.805c91.388,-356.66 455.146,-572.025 811.805,-480.637Z" style="fill:#d20064;fill-opacity:0.07;"/><path d="M1511.62,-785.895c384.174,98.44 616.154,490.26 517.714,874.435c-98.44,384.172 -490.26,616.152 -874.434,517.714c-384.173,-98.44 -616.154,-490.262 -517.715,-874.435c98.44,-384.174 490.262,-616.153 874.435,-517.714Z" style="fill:#fff;fill-opacity:0.05;"/></g></g><defs><linearGradient id="_Linear1" x1="0" y1="0" x2="1" y2="0" gradientUnits="userSpaceOnUse" gradientTransform="matrix(711.525,-1122.87,1122.87,711.525,277.592,473.437)"><stop offset="0" style="stop-color:#642878;stop-opacity:1"/><stop offset="0.48" style="stop-color:#003c78;stop-opacity:1"/><stop offset="1" style="stop-color:#1e8cc8;stop-opacity:1"/></linearGradient></defs></svg>