<svg width="294" height="36" viewBox="0 0 294 36" fill="none" xmlns="http://www.w3.org/2000/svg">
<path d="M6.87 20.665H2.37V19.375H6.87V20.665ZM4.41 14.395H4.83L1.605 23.5H0.105L3.87 13H5.37L9.135 23.5H7.635L4.41 14.395ZM15.6123 23.65C14.9623 23.65 14.4223 23.5725 13.9923 23.4175C13.5673 23.2625 13.2673 23.125 13.0923 23.005L13.2573 21.7C13.4173 21.84 13.6998 22 14.1048 22.18C14.5098 22.36 14.9923 22.45 15.5523 22.45C16.0273 22.45 16.3898 22.37 16.6398 22.21C16.8948 22.05 17.0223 21.825 17.0223 21.535C17.0223 21.28 16.9398 21.075 16.7748 20.92C16.6148 20.76 16.4198 20.635 16.1898 20.545C15.9648 20.45 15.7523 20.375 15.5523 20.32C15.2173 20.23 14.8698 20.1175 14.5098 19.9825C14.1548 19.8425 13.8548 19.635 13.6098 19.36C13.3648 19.085 13.2423 18.7 13.2423 18.205C13.2423 17.83 13.3323 17.475 13.5123 17.14C13.6923 16.8 13.9848 16.525 14.3898 16.315C14.7948 16.105 15.3323 16 16.0023 16C16.4923 16 16.8898 16.0525 17.1948 16.1575C17.5048 16.2575 17.7723 16.365 17.9973 16.48L17.8323 17.71C17.6173 17.53 17.3673 17.3775 17.0823 17.2525C16.7973 17.1275 16.4473 17.065 16.0323 17.065C15.6123 17.065 15.2698 17.145 15.0048 17.305C14.7398 17.46 14.6073 17.71 14.6073 18.055C14.6073 18.4 14.7473 18.645 15.0273 18.79C15.3123 18.935 15.7423 19.095 16.3173 19.27C16.4973 19.32 16.7048 19.3925 16.9398 19.4875C17.1798 19.5825 17.4123 19.71 17.6373 19.87C17.8623 20.03 18.0473 20.24 18.1923 20.5C18.3423 20.755 18.4173 21.075 18.4173 21.46C18.4173 21.785 18.3398 22.1175 18.1848 22.4575C18.0298 22.7925 17.7498 23.075 17.3448 23.305C16.9398 23.535 16.3623 23.65 15.6123 23.65ZM23.2632 23.65C22.3982 23.65 21.6707 23.4725 21.0807 23.1175C20.4907 22.7625 20.0432 22.2925 19.7382 21.7075C19.4382 21.1175 19.2882 20.47 19.2882 19.765C19.2882 19.08 19.4282 18.4525 19.7082 17.8825C19.9932 17.3125 20.4032 16.8575 20.9382 16.5175C21.4782 16.1725 22.1282 16 22.8882 16C23.4982 16 24.0407 16.1225 24.5157 16.3675C24.9957 16.6075 25.3707 16.96 25.6407 17.425C25.9157 17.885 26.0532 18.445 26.0532 19.105C26.0532 19.21 26.0482 19.325 26.0382 19.45C26.0332 19.57 26.0182 19.695 25.9932 19.825H20.6682C20.7332 20.505 20.8957 21.035 21.1557 21.415C21.4157 21.795 21.7432 22.0625 22.1382 22.2175C22.5332 22.3725 22.9632 22.45 23.4282 22.45C23.7682 22.45 24.1232 22.415 24.4932 22.345C24.8632 22.275 25.2132 22.165 25.5432 22.015L25.7232 23.08C25.4382 23.205 25.0907 23.3325 24.6807 23.4625C24.2707 23.5875 23.7982 23.65 23.2632 23.65ZM20.7882 18.895H24.6582C24.6582 18.55 24.5932 18.25 24.4632 17.995C24.3332 17.74 24.1357 17.545 23.8707 17.41C23.6057 17.27 23.2682 17.2 22.8582 17.2C22.2582 17.2 21.7957 17.35 21.4707 17.65C21.1507 17.945 20.9232 18.36 20.7882 18.895ZM27.414 23.5V16.15H28.524L28.689 17.365C29.064 16.9 29.4215 16.5575 29.7615 16.3375C30.1065 16.1125 30.474 16 30.864 16C30.989 16 31.104 16.015 31.209 16.045L31.074 17.53C31.009 17.515 30.939 17.505 30.864 17.5C30.794 17.49 30.714 17.485 30.624 17.485C30.234 17.485 29.874 17.5725 29.544 17.7475C29.219 17.9175 28.989 18.105 28.854 18.31V23.5H27.414ZM34.1851 23.5L31.3801 16.15H32.8801L34.9351 22.015L36.9751 16.15H38.4901L35.7001 23.5H34.1851ZM39.5429 23.5V16.15H40.8929V23.5H39.5429ZM39.5429 14.5V13H40.8929V14.5H39.5429ZM46.0966 23.65C45.2666 23.65 44.5691 23.4825 44.0041 23.1475C43.4441 22.8075 43.0191 22.3525 42.7291 21.7825C42.4441 21.2075 42.3016 20.57 42.3016 19.87C42.3016 19.14 42.4391 18.4825 42.7141 17.8975C42.9941 17.3125 43.4216 16.85 43.9966 16.51C44.5716 16.17 45.3066 16 46.2016 16C46.5866 16 46.9491 16.04 47.2891 16.12C47.6341 16.195 47.9416 16.3 48.2116 16.435L48.0016 17.62C47.7266 17.49 47.4341 17.3875 47.1241 17.3125C46.8191 17.2375 46.5016 17.2 46.1716 17.2C45.3616 17.2 44.7441 17.43 44.3191 17.89C43.8941 18.35 43.6816 18.99 43.6816 19.81C43.6816 20.61 43.8841 21.2525 44.2891 21.7375C44.6941 22.2225 45.3116 22.465 46.1416 22.465C46.4816 22.465 46.8066 22.425 47.1166 22.345C47.4316 22.265 47.7316 22.155 48.0166 22.015L48.1966 23.095C47.9966 23.235 47.7041 23.3625 47.3191 23.4775C46.9341 23.5925 46.5266 23.65 46.0966 23.65ZM52.9556 23.65C52.0906 23.65 51.3631 23.4725 50.7731 23.1175C50.1831 22.7625 49.7356 22.2925 49.4306 21.7075C49.1306 21.1175 48.9806 20.47 48.9806 19.765C48.9806 19.08 49.1206 18.4525 49.4006 17.8825C49.6856 17.3125 50.0956 16.8575 50.6306 16.5175C51.1706 16.1725 51.8206 16 52.5806 16C53.1906 16 53.7331 16.1225 54.2081 16.3675C54.6881 16.6075 55.0631 16.96 55.3331 17.425C55.6081 17.885 55.7456 18.445 55.7456 19.105C55.7456 19.21 55.7406 19.325 55.7306 19.45C55.7256 19.57 55.7106 19.695 55.6856 19.825H50.3606C50.4256 20.505 50.5881 21.035 50.8481 21.415C51.1081 21.795 51.4356 22.0625 51.8306 22.2175C52.2256 22.3725 52.6556 22.45 53.1206 22.45C53.4606 22.45 53.8156 22.415 54.1856 22.345C54.5556 22.275 54.9056 22.165 55.2356 22.015L55.4156 23.08C55.1306 23.205 54.7831 23.3325 54.3731 23.4625C53.9631 23.5875 53.4906 23.65 52.9556 23.65ZM50.4806 18.895H54.3506C54.3506 18.55 54.2856 18.25 54.1556 17.995C54.0256 17.74 53.8281 17.545 53.5631 17.41C53.2981 17.27 52.9606 17.2 52.5506 17.2C51.9506 17.2 51.4881 17.35 51.1631 17.65C50.8431 17.945 50.6156 18.36 50.4806 18.895ZM60.9855 23.5V17.2H59.7105L59.8905 16.15H60.9855V14.41C60.9855 13.755 61.1605 13.2325 61.5105 12.8425C61.8605 12.4475 62.3755 12.25 63.0555 12.25C63.3055 12.25 63.523 12.2675 63.708 12.3025C63.898 12.3375 64.0705 12.385 64.2255 12.445L64.0155 13.585C63.8955 13.54 63.778 13.5075 63.663 13.4875C63.548 13.4625 63.4155 13.45 63.2655 13.45C62.9755 13.45 62.748 13.5325 62.583 13.6975C62.418 13.8575 62.3355 14.125 62.3355 14.5V16.15H64.3155V17.2H62.3355V23.5H60.9855ZM65.4414 23.5V16.15H66.5514L66.7164 17.365C67.0914 16.9 67.4489 16.5575 67.7889 16.3375C68.1339 16.1125 68.5014 16 68.8914 16C69.0164 16 69.1314 16.015 69.2364 16.045L69.1014 17.53C69.0364 17.515 68.9664 17.505 68.8914 17.5C68.8214 17.49 68.7414 17.485 68.6514 17.485C68.2614 17.485 67.9014 17.5725 67.5714 17.7475C67.2464 17.9175 67.0164 18.105 66.8814 18.31V23.5H65.4414ZM73.207 23.65C72.437 23.65 71.7795 23.48 71.2345 23.14C70.6945 22.795 70.2795 22.335 69.9895 21.76C69.7045 21.18 69.562 20.535 69.562 19.825C69.562 19.115 69.7045 18.4725 69.9895 17.8975C70.2795 17.3175 70.6945 16.8575 71.2345 16.5175C71.7795 16.1725 72.437 16 73.207 16C73.972 16 74.627 16.1725 75.172 16.5175C75.717 16.8575 76.132 17.3175 76.417 17.8975C76.707 18.4725 76.852 19.115 76.852 19.825C76.852 20.535 76.707 21.18 76.417 21.76C76.132 22.335 75.717 22.795 75.172 23.14C74.627 23.48 73.972 23.65 73.207 23.65ZM73.207 22.45C73.937 22.45 74.497 22.22 74.887 21.76C75.277 21.295 75.472 20.65 75.472 19.825C75.472 19 75.277 18.3575 74.887 17.8975C74.497 17.4325 73.937 17.2 73.207 17.2C72.482 17.2 71.922 17.4325 71.527 17.8975C71.137 18.3575 70.942 19 70.942 19.825C70.942 20.65 71.137 21.295 71.527 21.76C71.922 22.22 72.482 22.45 73.207 22.45ZM78.2441 23.5V16.15H79.2941L79.5641 17.56L79.0541 17.32C79.5141 16.825 79.9616 16.4825 80.3966 16.2925C80.8316 16.0975 81.2891 16 81.7691 16C82.1291 16 82.4741 16.06 82.8041 16.18C83.1391 16.295 83.4391 16.5 83.7041 16.795C83.9741 17.085 84.1891 17.49 84.3491 18.01L83.9741 17.845C84.1941 17.275 84.5316 16.825 84.9866 16.495C85.4416 16.165 86.0541 16 86.8241 16C87.4391 16 87.9566 16.115 88.3766 16.345C88.7966 16.57 89.1116 16.9175 89.3216 17.3875C89.5366 17.8525 89.6441 18.445 89.6441 19.165V23.5H88.2941V19.18C88.2941 18.49 88.1591 17.9875 87.8891 17.6725C87.6191 17.3575 87.1791 17.2 86.5691 17.2C86.1391 17.2 85.7941 17.2675 85.5341 17.4025C85.2741 17.5325 85.0766 17.7025 84.9416 17.9125C84.8116 18.1225 84.7241 18.345 84.6791 18.58C84.6391 18.815 84.6191 19.035 84.6191 19.24V23.5H83.2691V19.45C83.2691 18.85 83.1966 18.3875 83.0516 18.0625C82.9066 17.7375 82.7041 17.5125 82.4441 17.3875C82.1841 17.2625 81.8841 17.2 81.5441 17.2C81.0491 17.2 80.6066 17.31 80.2166 17.53C79.8266 17.745 79.5641 18.09 79.4291 18.565L79.5941 17.83V23.5H78.2441Z" fill="#1E8CC8"/>
<path d="M137.224 18C137.224 8.05817 128.892 0 118.612 0C108.332 0 100 8.05817 100 18C100 27.9418 108.332 36 118.612 36C118.641 36 118.668 36 118.697 36C118.975 36 119.253 35.9907 119.528 35.979C119.586 35.9766 120.289 35.9322 120.579 35.9018C121.553 35.8013 122.483 35.3877 123.114 34.6609C123.602 34.0976 123.885 33.4246 123.885 32.6603C123.885 31.8961 123.375 29.8582 120.072 29.8582C118.598 29.8582 117.073 29.8582 115.599 29.9564C111.068 30.0008 107.18 28.5004 107.315 24.1558C107.431 20.3721 110.923 18.5515 110.923 18.5515C110.923 18.5515 109.347 16.7333 109.347 13.784C109.347 9.21267 112.904 5.18125 118.09 5.18125H126.985C127.52 5.18125 127.952 5.59958 127.952 6.11607V7.34537C127.952 7.68891 127.749 8.13295 127.394 8.17969L124.598 8.9182C124.598 8.9182 126.785 10.491 126.785 14.1766C126.785 18.3552 123.431 22.188 118.143 22.188C115.55 22.188 114.13 21.4004 113.721 21.4004C113.366 21.4004 111.636 22.2347 111.636 23.8099C111.636 24.9411 112.552 25.8245 114.076 25.8245H120.988C125.41 25.8245 128.967 28.1358 128.967 32.4103C128.967 32.5972 128.957 32.7865 128.94 32.9735C133.935 29.746 137.227 24.2446 137.227 17.9977L137.224 18Z" fill="#1E8CC8"/>
<path d="M119.902 18.0628C122.268 17.1149 123.392 14.4914 122.412 12.2031C121.432 9.91474 118.719 8.82806 116.353 9.77592C113.987 10.7238 112.863 13.3473 113.843 15.6356C114.823 17.924 117.536 19.0106 119.902 18.0628Z" fill="#1E8CC8"/>
<path d="M151.98 3.7749C153.348 3.7749 154.681 4.30111 155.699 5.21319C155.804 5.31843 155.839 5.52891 155.699 5.63415L154.752 6.6164C154.646 6.72164 154.506 6.72164 154.366 6.6164C153.699 6.02003 152.892 5.73939 152.05 5.73939C150.121 5.73939 148.613 7.38816 148.613 9.28249C148.613 11.1768 150.121 12.7905 152.05 12.7905C153.98 12.7905 153.559 12.5449 153.875 12.4046V11.1067H152.647C152.471 11.1067 152.366 11.0014 152.366 10.826V9.63329C152.366 9.45789 152.471 9.35265 152.647 9.35265H155.593C155.734 9.35265 155.874 9.49297 155.874 9.63329V13.5623C155.874 13.6675 155.804 13.7727 155.769 13.8078C155.769 13.8078 154.19 14.7901 151.98 14.7901C149.77 14.7901 146.473 12.3695 146.473 9.31757C146.473 6.26559 148.928 3.80998 151.98 3.80998V3.7749Z" fill="#1E8CC8"/>
<path d="M159.066 4.23084C159.066 4.09052 159.172 3.9502 159.347 3.9502H165.556C165.732 3.9502 165.837 4.09052 165.837 4.23084V5.49372C165.837 5.63404 165.732 5.77436 165.556 5.77436H161.031V8.30013H164.82C164.96 8.30013 165.1 8.44045 165.1 8.58078V9.84366C165.1 10.0191 164.96 10.1243 164.82 10.1243H161.031V12.7904H165.556C165.732 12.7904 165.837 12.9307 165.837 13.071V14.3339C165.837 14.4742 165.732 14.6146 165.556 14.6146H159.347C159.172 14.6146 159.066 14.4742 159.066 14.3339V4.19576V4.23084Z" fill="#1E8CC8"/>
<path d="M168.362 13.1413L168.923 12.1941C169.028 11.9837 169.309 11.9837 169.449 12.0889C169.519 12.124 170.782 13.0361 171.764 13.0361C172.747 13.0361 173.168 12.5099 173.168 11.8433C173.168 11.1768 172.501 10.5103 171.238 10.0192C169.8 9.42281 168.362 8.51072 168.362 6.72164C168.362 4.93255 169.379 3.7749 171.8 3.7749C174.22 3.7749 174.536 4.58175 174.852 4.79223C174.992 4.89747 175.062 5.14303 174.957 5.28335L174.36 6.16035C174.255 6.33575 174.01 6.47607 173.834 6.33575C173.729 6.26559 172.536 5.49383 171.694 5.49383C170.852 5.49383 170.361 6.09019 170.361 6.58131C170.361 7.28292 170.923 7.77404 172.15 8.30024C173.624 8.8966 175.343 9.77361 175.343 11.7732C175.343 13.7727 173.975 14.7901 171.835 14.7901C169.695 14.7901 168.783 13.878 168.467 13.5973C168.327 13.457 168.256 13.3869 168.397 13.1413H168.362Z" fill="#1E8CC8"/>
<path d="M178.186 4.23084C178.186 4.09052 178.326 3.9502 178.466 3.9502H179.904C180.045 3.9502 180.185 4.09052 180.185 4.23084V14.369C180.185 14.5093 180.045 14.6496 179.904 14.6496H178.466C178.326 14.6496 178.186 14.5093 178.186 14.369V4.23084Z" fill="#1E8CC8"/>
<path d="M183.272 13.1413L183.833 12.1941C183.938 11.9837 184.219 11.9837 184.359 12.0889C184.43 12.124 185.692 13.0361 186.675 13.0361C187.657 13.0361 188.078 12.5099 188.078 11.8433C188.078 11.1768 187.411 10.5103 186.148 10.0192C184.71 9.42281 183.272 8.51072 183.272 6.72164C183.272 4.93255 184.289 3.7749 186.71 3.7749C189.13 3.7749 189.446 4.58175 189.762 4.79223C189.902 4.89747 189.972 5.14303 189.867 5.28335L189.271 6.16035C189.165 6.33575 188.92 6.47607 188.744 6.33575C188.639 6.26559 187.446 5.49383 186.604 5.49383C185.763 5.49383 185.271 6.09019 185.271 6.58131C185.271 7.28292 185.833 7.77404 187.061 8.30024C188.534 8.8966 190.253 9.77361 190.253 11.7732C190.253 13.7727 188.885 14.7901 186.745 14.7901C184.605 14.7901 183.693 13.878 183.377 13.5973C183.237 13.457 183.167 13.3869 183.307 13.1413H183.272Z" fill="#1E8CC8"/>
<path d="M197.162 4.23084C197.162 4.09052 197.267 3.9502 197.443 3.9502H198.039C198.179 3.9502 198.32 4.09052 198.32 4.23084V13.6323H202.74C202.915 13.6323 203.02 13.7726 203.02 13.913V14.369C203.02 14.5093 202.915 14.6496 202.74 14.6496H197.443C197.267 14.6496 197.162 14.5093 197.162 14.369V4.23084Z" fill="#003C78"/>
<path d="M206.845 8.37012C208.459 8.37012 209.616 9.56284 209.616 11.1765C209.616 12.7902 209.616 11.4923 209.616 11.5975C209.616 11.7378 209.476 11.8431 209.336 11.8431H204.916C204.986 12.8604 205.863 13.8426 206.95 13.8426C208.038 13.8426 208.108 13.5971 208.459 13.3866C208.669 13.2813 208.774 13.1761 208.88 13.3866C208.985 13.4918 209.055 13.6321 209.125 13.7374C209.23 13.8777 209.301 13.9829 209.055 14.1233C208.704 14.4039 207.862 14.8249 206.81 14.8249C204.951 14.8249 203.828 13.3866 203.828 11.5975C203.828 9.8084 204.986 8.37012 206.81 8.37012H206.845ZM208.564 11.0011C208.529 10.1241 207.792 9.31728 206.845 9.31728C205.898 9.31728 205.021 10.054 204.916 11.0011H208.564Z" fill="#003C78"/>
<path d="M211.125 4.96764C211.125 4.54668 211.441 4.23096 211.827 4.23096C212.212 4.23096 212.563 4.54668 212.563 4.96764C212.563 5.3886 212.248 5.66924 211.827 5.66924C211.406 5.66924 211.125 5.35352 211.125 4.96764ZM211.371 8.82646C211.371 8.68614 211.511 8.54581 211.651 8.54581H212.142C212.283 8.54581 212.423 8.68614 212.423 8.82646V14.3691C212.423 14.5094 212.283 14.6498 212.142 14.6498H211.651C211.511 14.6498 211.371 14.5094 211.371 14.3691V8.82646Z" fill="#003C78"/>
<path d="M214.984 4.23084C214.984 4.09052 215.125 3.9502 215.265 3.9502H215.756C215.896 3.9502 216.037 4.09052 216.037 4.23084V8.79126C216.037 8.79126 216.668 8.40537 217.686 8.40537C219.51 8.40537 220.632 9.80858 220.632 11.5977C220.632 13.3868 219.404 14.825 217.861 14.825C216.317 14.825 215.967 14.0182 215.967 14.0182L215.861 14.4392C215.861 14.5795 215.756 14.6847 215.616 14.6847H215.3C215.16 14.6847 215.019 14.5444 215.019 14.4041V4.26592L214.984 4.23084ZM217.721 13.8428C218.843 13.8428 219.545 12.7904 219.545 11.5977C219.545 10.4049 218.878 9.4227 217.545 9.4227C216.212 9.4227 216.072 9.7735 216.072 9.7735V12.8255C216.072 12.8255 216.633 13.8428 217.756 13.8428H217.721Z" fill="#003C78"/>
<path d="M222.42 8.82672C222.42 8.6864 222.56 8.54608 222.701 8.54608H222.981C223.122 8.54608 223.192 8.61624 223.227 8.72148L223.367 9.2126C223.367 9.2126 224.244 8.40576 225.507 8.40576C226.77 8.40576 227.892 9.56341 227.892 11.142V14.3694C227.892 14.5097 227.752 14.65 227.612 14.65H227.121C226.98 14.65 226.84 14.5097 226.84 14.3694V11.142C226.84 9.98437 226.314 9.42309 225.472 9.42309C224.63 9.42309 223.507 10.3001 223.507 10.3001V14.3694C223.507 14.5097 223.367 14.65 223.227 14.65H222.736C222.595 14.65 222.455 14.5097 222.455 14.3694V8.82672H222.42Z" fill="#003C78"/>
<path d="M229.857 4.96764C229.857 4.54668 230.173 4.23096 230.559 4.23096C230.945 4.23096 231.296 4.54668 231.296 4.96764C231.296 5.3886 230.98 5.66924 230.559 5.66924C230.138 5.66924 229.857 5.35352 229.857 4.96764ZM230.068 8.82646C230.068 8.68614 230.208 8.54581 230.349 8.54581H230.84C230.98 8.54581 231.12 8.68614 231.12 8.82646V14.3691C231.12 14.5094 230.98 14.6498 230.84 14.6498H230.349C230.208 14.6498 230.068 14.5094 230.068 14.3691V8.82646Z" fill="#003C78"/>
<path d="M232.84 14.1938L235.822 9.52814C235.822 9.49306 233.261 9.49306 233.261 9.49306C233.12 9.49306 232.98 9.35274 232.98 9.21242V8.82654C232.98 8.65114 233.085 8.5459 233.261 8.5459H237.084C237.33 8.5459 237.47 8.75638 237.33 8.96686L234.418 13.6676C234.418 13.7027 236.769 13.7027 236.769 13.7027C236.944 13.7027 237.049 13.8079 237.049 13.9833V14.3692C237.049 14.5095 236.944 14.6498 236.769 14.6498H233.085C232.945 14.6498 232.805 14.5095 232.805 14.3692V14.2289L232.84 14.1938Z" fill="#003C78"/>
<path d="M243.891 4.23084C243.891 4.09052 244.031 3.9502 244.171 3.9502H244.768C244.908 3.9502 245.048 4.09052 245.048 4.23084V14.369C245.048 14.5093 244.908 14.6496 244.768 14.6496H244.171C244.031 14.6496 243.891 14.5093 243.891 14.369V4.23084Z" fill="#003C78"/>
<path d="M247.818 8.82672C247.818 8.6864 247.959 8.54608 248.099 8.54608H248.38C248.52 8.54608 248.59 8.61624 248.625 8.72148L248.766 9.2126C248.766 9.2126 249.643 8.40576 250.905 8.40576C252.168 8.40576 253.291 9.56341 253.291 11.142V14.3694C253.291 14.5097 253.151 14.65 253.01 14.65H252.519C252.379 14.65 252.238 14.5097 252.238 14.3694V11.142C252.238 9.98437 251.712 9.42309 250.87 9.42309C250.028 9.42309 248.906 10.3001 248.906 10.3001V14.3694C248.906 14.5097 248.766 14.65 248.625 14.65H248.134C247.994 14.65 247.853 14.5097 247.853 14.3694V8.82672H247.818Z" fill="#003C78"/>
<path d="M255.08 13.7725C255.15 13.6672 255.255 13.4567 255.291 13.3866C255.361 13.2813 255.536 13.2463 255.712 13.3515C255.712 13.3515 256.378 13.8777 257.15 13.8777C257.922 13.8777 258.132 13.562 258.132 13.141C258.132 12.7201 257.676 12.3693 256.799 11.9132C255.992 11.5273 255.045 10.966 255.045 9.94872C255.045 8.9314 255.571 8.37012 256.974 8.37012C258.378 8.37012 258.378 8.65076 258.658 8.86124C258.799 8.96648 258.834 9.17696 258.764 9.35236L258.658 9.59792C258.553 9.77332 258.343 9.8084 258.202 9.73824C258.202 9.73824 257.536 9.38744 256.974 9.38744C256.413 9.38744 256.097 9.73824 256.097 9.9838C256.097 10.4749 256.589 10.7205 257.22 11.0362C258.272 11.5273 259.22 12.0185 259.22 13.1059C259.22 14.1934 258.378 14.8249 257.115 14.8249C255.852 14.8249 255.466 14.4039 255.115 14.1233C255.045 14.0531 255.01 13.9128 255.045 13.8075L255.08 13.7725Z" fill="#003C78"/>
<path d="M261.359 9.45812H260.587C260.412 9.45812 260.307 9.3178 260.307 9.17747V8.82667C260.307 8.65127 260.412 8.54603 260.587 8.54603H261.359V6.86219C261.359 6.72186 261.499 6.58154 261.64 6.58154H262.131C262.271 6.58154 262.411 6.68678 262.411 6.8271V8.54603H264.201C264.376 8.54603 264.481 8.65127 264.481 8.82667V9.17747C264.481 9.3178 264.376 9.45812 264.201 9.45812H262.411V13.0363C262.411 13.6327 262.552 13.773 262.903 13.773C263.253 13.773 263.815 13.5274 264.025 13.4222C264.271 13.3169 264.306 13.4222 264.376 13.5274L264.621 13.9133C264.727 14.0887 264.692 14.1939 264.516 14.2992C264.306 14.4395 263.464 14.8254 262.762 14.8254C261.534 14.8254 261.359 14.0887 261.359 13.1415V9.45812Z" fill="#003C78"/>
<path d="M266.061 4.96764C266.061 4.54668 266.376 4.23096 266.762 4.23096C267.148 4.23096 267.499 4.54668 267.499 4.96764C267.499 5.3886 267.183 5.66924 266.762 5.66924C266.341 5.66924 266.061 5.35352 266.061 4.96764ZM266.271 8.82646C266.271 8.68614 266.411 8.54581 266.552 8.54581H267.043C267.183 8.54581 267.323 8.68614 267.323 8.82646V14.3691C267.323 14.5094 267.183 14.6498 267.043 14.6498H266.552C266.411 14.6498 266.271 14.5094 266.271 14.3691V8.82646Z" fill="#003C78"/>
<path d="M269.99 9.45812H269.218C269.043 9.45812 268.938 9.3178 268.938 9.17747V8.82667C268.938 8.65127 269.043 8.54603 269.218 8.54603H269.99V6.86219C269.99 6.72186 270.13 6.58154 270.271 6.58154H270.762C270.902 6.58154 271.042 6.68678 271.042 6.8271V8.54603H272.831C273.007 8.54603 273.112 8.65127 273.112 8.82667V9.17747C273.112 9.3178 273.007 9.45812 272.831 9.45812H271.042V13.0363C271.042 13.6327 271.183 13.773 271.533 13.773C271.884 13.773 272.446 13.5274 272.656 13.4222C272.902 13.3169 272.937 13.4222 273.007 13.5274L273.252 13.9133C273.358 14.0887 273.323 14.1939 273.147 14.2992C272.937 14.4395 272.095 14.8254 271.393 14.8254C270.165 14.8254 269.99 14.0887 269.99 13.1415V9.45812Z" fill="#003C78"/>
<path d="M274.83 8.82654C274.83 8.68622 274.97 8.5459 275.111 8.5459H275.602C275.742 8.5459 275.882 8.68622 275.882 8.82654V12.0539C275.882 13.2116 276.409 13.7728 277.251 13.7728C278.092 13.7728 279.075 12.8958 279.075 12.8958V8.82654C279.075 8.68622 279.215 8.5459 279.355 8.5459H279.846C279.987 8.5459 280.127 8.68622 280.127 8.82654V14.3692C280.127 14.5095 279.987 14.6498 279.846 14.6498H279.566C279.39 14.6498 279.32 14.5446 279.285 14.4043L279.18 14.0184C279.18 14.0184 278.478 14.8252 277.18 14.8252C275.882 14.8252 274.795 13.6676 274.795 12.0539V8.82654H274.83Z" fill="#003C78"/>
<path d="M282.793 9.45812H282.021C281.845 9.45812 281.74 9.3178 281.74 9.17747V8.82667C281.74 8.65127 281.845 8.54603 282.021 8.54603H282.793V6.86219C282.793 6.72186 282.933 6.58154 283.073 6.58154H283.564C283.705 6.58154 283.845 6.68678 283.845 6.8271V8.54603H285.634C285.81 8.54603 285.915 8.65127 285.915 8.82667V9.17747C285.915 9.3178 285.81 9.45812 285.634 9.45812H283.845V13.0363C283.845 13.6327 283.985 13.773 284.336 13.773C284.687 13.773 285.248 13.5274 285.459 13.4222C285.704 13.3169 285.739 13.4222 285.81 13.5274L286.055 13.9133C286.16 14.0887 286.125 14.1939 285.95 14.2992C285.739 14.4395 284.897 14.8254 284.196 14.8254C282.968 14.8254 282.793 14.0887 282.793 13.1415V9.45812Z" fill="#003C78"/>
<path d="M290.265 8.37012C291.879 8.37012 293.036 9.56284 293.036 11.1765C293.036 12.7902 293.036 11.4923 293.036 11.5975C293.036 11.7378 292.896 11.8431 292.756 11.8431H288.336C288.406 12.8604 289.283 13.8426 290.37 13.8426C291.458 13.8426 291.528 13.5971 291.879 13.3866C292.089 13.2813 292.194 13.1761 292.3 13.3866C292.405 13.4918 292.475 13.6321 292.545 13.7374C292.65 13.8777 292.721 13.9829 292.475 14.1233C292.124 14.4039 291.282 14.8249 290.23 14.8249C288.371 14.8249 287.248 13.3866 287.248 11.5975C287.248 9.8084 288.406 8.37012 290.23 8.37012H290.265ZM291.984 11.0011C291.949 10.1241 291.212 9.31728 290.265 9.31728C289.318 9.31728 288.441 10.054 288.336 11.0011H291.984Z" fill="#003C78"/>
<path d="M147.454 26.8222H146.507C146.332 26.8222 146.227 26.6819 146.227 26.5416V26.1908C146.227 26.0154 146.332 25.9101 146.507 25.9101H147.454V23.7702C147.454 21.9812 148.472 21.1743 149.805 21.1743C151.138 21.1743 151.208 21.5251 151.489 21.8058C151.594 21.911 151.594 22.0513 151.559 22.1566L151.313 22.5424C151.208 22.6828 151.068 22.6828 150.927 22.5424C150.717 22.4021 150.261 22.0864 149.805 22.0864C149.103 22.0864 148.542 22.5775 148.542 23.7352V25.8751H150.331C150.506 25.8751 150.612 25.9803 150.612 26.1557V26.5065C150.612 26.6468 150.506 26.7871 150.331 26.7871H148.542V31.6984C148.542 31.8387 148.402 31.979 148.261 31.979H147.77C147.63 31.979 147.489 31.8387 147.489 31.6984V26.7871L147.454 26.8222Z" fill="#003C78"/>
<path d="M154.54 25.7349C156.224 25.7349 157.592 27.2082 157.592 28.9272C157.592 30.6461 156.259 32.1545 154.54 32.1545C152.821 32.1545 151.488 30.6812 151.488 28.9272C151.488 27.1732 152.821 25.7349 154.54 25.7349ZM154.54 31.1723C155.663 31.1723 156.54 30.19 156.54 28.9272C156.54 27.6643 155.663 26.7522 154.54 26.7522C153.418 26.7522 152.541 27.7344 152.541 28.9272C152.541 30.1199 153.418 31.1723 154.54 31.1723Z" fill="#003C78"/>
<path d="M159.381 26.191C159.381 26.0507 159.521 25.9103 159.661 25.9103H159.942C160.047 25.9103 160.188 25.9805 160.188 26.1208L160.293 26.5769C160.293 26.5769 160.854 25.77 162.117 25.77C163.38 25.77 163.345 25.8402 163.205 26.2611L163.029 26.7873C162.959 26.9978 162.819 26.9978 162.678 26.9277C162.538 26.8575 162.328 26.8224 162.082 26.8224C160.924 26.8224 160.398 27.6643 160.398 27.6643V31.7336C160.398 31.874 160.258 32.0143 160.117 32.0143H159.626C159.486 32.0143 159.346 31.874 159.346 31.7336V26.191H159.381Z" fill="#003C78"/>
<path d="M168.433 26.8224H167.662C167.486 26.8224 167.381 26.6821 167.381 26.5417V26.1909C167.381 26.0155 167.486 25.9103 167.662 25.9103H168.433V24.2264C168.433 24.0861 168.574 23.9458 168.714 23.9458H169.205C169.345 23.9458 169.486 24.051 169.486 24.1914V25.9103H171.275C171.45 25.9103 171.555 26.0155 171.555 26.1909V26.5417C171.555 26.6821 171.45 26.8224 171.275 26.8224H169.486V30.4005C169.486 30.9969 169.626 31.1372 169.977 31.1372C170.328 31.1372 170.889 30.8917 171.099 30.7864C171.345 30.6812 171.38 30.7864 171.45 30.8917L171.696 31.2776C171.801 31.453 171.766 31.5582 171.59 31.6634C171.38 31.8038 170.538 32.1896 169.836 32.1896C168.609 32.1896 168.433 31.453 168.433 30.5058V26.8224Z" fill="#003C78"/>
<path d="M173.344 21.5956C173.344 21.4553 173.484 21.3149 173.624 21.3149H174.116C174.256 21.3149 174.396 21.4553 174.396 21.5956V26.5419C174.396 26.5419 175.203 25.735 176.431 25.735C177.659 25.735 178.816 26.6822 178.816 28.4713V31.6987C178.816 31.839 178.676 31.9793 178.536 31.9793H178.044C177.904 31.9793 177.764 31.839 177.764 31.6987V28.4713C177.764 27.3136 177.238 26.7524 176.396 26.7524C175.554 26.7524 174.431 27.5943 174.431 27.5943V31.6987C174.431 31.839 174.291 31.9793 174.151 31.9793H173.659C173.519 31.9793 173.379 31.839 173.379 31.6987V21.5605L173.344 21.5956Z" fill="#003C78"/>
<path d="M183.552 25.7349C185.166 25.7349 186.323 26.9276 186.323 28.5413C186.323 30.155 186.323 28.857 186.323 28.9622C186.323 29.1026 186.183 29.2078 186.043 29.2078H181.623C181.693 30.2251 182.57 31.2074 183.657 31.2074C184.745 31.2074 184.815 30.9618 185.166 30.7513C185.376 30.6461 185.481 30.5408 185.587 30.7513C185.692 30.8566 185.762 30.9969 185.832 31.1021C185.938 31.2424 186.008 31.3477 185.762 31.488C185.411 31.7686 184.569 32.1896 183.517 32.1896C181.658 32.1896 180.535 30.7513 180.535 28.9622C180.535 27.1732 181.693 25.7349 183.517 25.7349H183.552ZM185.271 28.3659C185.236 27.4889 184.499 26.682 183.552 26.682C182.605 26.682 181.728 27.4187 181.623 28.3659H185.271Z" fill="#003C78"/>
<path d="M191.024 30.4355C191.094 30.3302 191.164 30.225 191.269 30.1548C191.41 29.9444 191.585 29.8391 191.796 30.0145C191.901 30.1198 193.023 31.1722 194.392 31.1722C195.76 31.1722 196.426 30.4004 196.426 29.4883C196.426 28.5762 195.514 27.8045 193.76 27.0678C192.076 26.3311 191.059 25.6295 191.059 23.9106C191.059 22.1916 191.901 21.1743 194.321 21.1743C196.742 21.1743 196.952 21.9461 196.952 21.9461C197.058 21.9812 197.233 22.1916 197.058 22.4723C196.988 22.5775 196.952 22.6828 196.882 22.7529C196.742 22.9634 196.602 23.0336 196.356 22.8932C196.251 22.8231 195.269 22.1916 194.357 22.1916C192.743 22.1916 192.252 23.244 192.252 23.8755C192.252 24.8928 193.023 25.4892 194.321 26.0154C196.391 26.8573 197.724 27.6291 197.724 29.4182C197.724 31.2072 196.216 32.1544 194.427 32.1544C192.638 32.1544 191.41 31.102 191.199 30.9266C191.094 30.8214 190.919 30.681 191.094 30.4004L191.024 30.4355Z" fill="#003C78"/>
<path d="M201.759 25.7349C203.443 25.7349 204.811 27.2082 204.811 28.9272C204.811 30.6461 203.478 32.1545 201.759 32.1545C200.04 32.1545 198.707 30.6812 198.707 28.9272C198.707 27.1732 200.04 25.7349 201.759 25.7349ZM201.759 31.1723C202.882 31.1723 203.759 30.19 203.759 28.9272C203.759 27.6643 202.882 26.7522 201.759 26.7522C200.636 26.7522 199.759 27.7344 199.759 28.9272C199.759 30.1199 200.636 31.1723 201.759 31.1723Z" fill="#003C78"/>
<path d="M209.3 25.7349C210.212 25.7349 210.949 26.0857 211.475 26.8224C211.58 26.9627 211.545 27.1381 211.405 27.2433L211.124 27.4889C210.878 27.6994 210.808 27.559 210.668 27.4187C210.352 27.0679 209.861 26.7873 209.265 26.7873C208.107 26.7873 207.23 27.7344 207.23 28.9622C207.23 30.19 208.107 31.1723 209.265 31.1723C210.422 31.1723 210.528 30.7162 210.878 30.3654C211.054 30.19 211.159 30.2251 211.334 30.3654L211.51 30.4707C211.65 30.5759 211.72 30.7513 211.615 30.8916C211.159 31.6283 210.317 32.1896 209.265 32.1896C207.581 32.1896 206.143 30.8215 206.143 28.9973C206.143 27.1732 207.616 25.7699 209.3 25.7699V25.7349Z" fill="#003C78"/>
<path d="M213.23 22.3675C213.23 21.9466 213.546 21.6309 213.932 21.6309C214.318 21.6309 214.669 21.9466 214.669 22.3675C214.669 22.7885 214.353 23.0691 213.932 23.0691C213.511 23.0691 213.23 22.7534 213.23 22.3675ZM213.441 26.1913C213.441 26.051 213.581 25.9106 213.722 25.9106H214.213C214.353 25.9106 214.493 26.051 214.493 26.1913V31.7339C214.493 31.8743 214.353 32.0146 214.213 32.0146H213.722C213.581 32.0146 213.441 31.8743 213.441 31.7339V26.1913Z" fill="#003C78"/>
<path d="M218.737 28.1555C219.404 28.1555 220.035 28.366 220.035 28.366C220.035 27.2435 219.93 26.7173 219.053 26.7173C218.176 26.7173 217.509 26.9628 217.229 27.0681C217.088 27.1382 216.983 27.0681 216.948 26.9277L216.843 26.5419C216.773 26.3665 216.843 26.2612 217.018 26.1911C217.123 26.156 218 25.8052 219.158 25.8052C220.316 25.8052 221.087 26.612 221.087 28.4011V31.8039C221.087 31.9442 220.947 32.0845 220.807 32.0845H220.526C220.351 32.0845 220.316 31.9793 220.281 31.839L220.175 31.418C219.86 31.7337 219.228 32.2248 218.281 32.2248C217.334 32.2248 216.387 31.4531 216.387 30.2253C216.387 28.9975 217.264 28.1906 218.842 28.1906L218.737 28.1555ZM218.351 31.2426C219.123 31.2426 219.789 30.7515 220.035 30.4007V29.2079C219.86 29.1027 219.439 28.9624 218.737 28.9624C218.035 28.9624 217.264 29.3834 217.264 30.1902C217.264 30.997 217.685 31.2777 218.351 31.2777V31.2426Z" fill="#003C78"/>
<path d="M223.262 21.5956C223.262 21.4553 223.402 21.3149 223.542 21.3149H224.033C224.174 21.3149 224.314 21.4553 224.314 21.5956V31.7337C224.314 31.8741 224.174 32.0144 224.033 32.0144H223.542C223.402 32.0144 223.262 31.8741 223.262 31.7337V21.5956Z" fill="#003C78"/>
<path d="M229.823 30.4355C229.893 30.3302 229.963 30.225 230.068 30.1548C230.209 29.9444 230.384 29.8391 230.594 30.0145C230.7 30.1198 231.822 31.1722 233.19 31.1722C234.559 31.1722 235.225 30.4004 235.225 29.4883C235.225 28.5762 234.313 27.8045 232.559 27.0678C230.875 26.3311 229.858 25.6295 229.858 23.9106C229.858 22.1916 230.7 21.1743 233.12 21.1743C235.541 21.1743 235.751 21.9461 235.751 21.9461C235.857 21.9812 236.032 22.1916 235.857 22.4723C235.786 22.5775 235.751 22.6828 235.681 22.7529C235.541 22.9634 235.4 23.0336 235.155 22.8932C235.05 22.8231 234.067 22.1916 233.155 22.1916C231.542 22.1916 231.051 23.244 231.051 23.8755C231.051 24.8928 231.822 25.4892 233.12 26.0154C235.19 26.8573 236.523 27.6291 236.523 29.4182C236.523 31.2072 235.015 32.1544 233.226 32.1544C231.436 32.1544 230.209 31.102 229.998 30.9266C229.893 30.8214 229.717 30.681 229.893 30.4004L229.823 30.4355Z" fill="#003C78"/>
<path d="M240.978 25.7349C241.89 25.7349 242.626 26.0857 243.152 26.8224C243.258 26.9627 243.223 27.1381 243.082 27.2433L242.802 27.4889C242.556 27.6994 242.486 27.559 242.346 27.4187C242.03 27.0679 241.539 26.7873 240.942 26.7873C239.785 26.7873 238.908 27.7344 238.908 28.9622C238.908 30.19 239.785 31.1723 240.942 31.1723C242.1 31.1723 242.205 30.7162 242.556 30.3654C242.732 30.19 242.837 30.2251 243.012 30.3654L243.188 30.4707C243.328 30.5759 243.398 30.7513 243.293 30.8916C242.837 31.6283 241.995 32.1896 240.942 32.1896C239.259 32.1896 237.82 30.8215 237.82 28.9973C237.82 27.1732 239.294 25.7699 240.978 25.7699V25.7349Z" fill="#003C78"/>
<path d="M244.871 22.3675C244.871 21.9466 245.187 21.6309 245.573 21.6309C245.959 21.6309 246.309 21.9466 246.309 22.3675C246.309 22.7885 245.994 23.0691 245.573 23.0691C245.152 23.0691 244.871 22.7534 244.871 22.3675ZM245.082 26.1913C245.082 26.051 245.222 25.9106 245.362 25.9106H245.853C245.994 25.9106 246.134 26.051 246.134 26.1913V31.7339C246.134 31.8743 245.994 32.0146 245.853 32.0146H245.362C245.222 32.0146 245.082 31.8743 245.082 31.7339V26.1913Z" fill="#003C78"/>
<path d="M250.941 25.7349C252.554 25.7349 253.712 26.9276 253.712 28.5413C253.712 30.155 253.712 28.857 253.712 28.9622C253.712 29.1026 253.572 29.2078 253.431 29.2078H249.011C249.081 30.2251 249.958 31.2074 251.046 31.2074C252.133 31.2074 252.204 30.9618 252.554 30.7513C252.765 30.6461 252.87 30.5408 252.975 30.7513C253.081 30.8566 253.151 30.9969 253.221 31.1021C253.326 31.2424 253.396 31.3477 253.151 31.488C252.8 31.7686 251.958 32.1896 250.906 32.1896C249.046 32.1896 247.924 30.7513 247.924 28.9622C247.924 27.1732 249.081 25.7349 250.906 25.7349H250.941ZM252.66 28.3659C252.625 27.4889 251.888 26.682 250.941 26.682C249.994 26.682 249.117 27.4187 249.011 28.3659H252.66Z" fill="#003C78"/>
<path d="M255.467 26.191C255.467 26.0507 255.607 25.9103 255.747 25.9103H256.028C256.168 25.9103 256.239 25.9805 256.274 26.0857L256.414 26.5769C256.414 26.5769 257.291 25.77 258.554 25.77C259.817 25.77 260.939 26.9277 260.939 28.5063V31.7336C260.939 31.874 260.799 32.0143 260.659 32.0143H260.168C260.027 32.0143 259.887 31.874 259.887 31.7336V28.5063C259.887 27.3486 259.361 26.7873 258.519 26.7873C257.677 26.7873 256.554 27.6643 256.554 27.6643V31.7336C256.554 31.874 256.414 32.0143 256.274 32.0143H255.783C255.642 32.0143 255.502 31.874 255.502 31.7336V26.191H255.467Z" fill="#003C78"/>
<path d="M265.815 25.7349C266.728 25.7349 267.464 26.0857 267.99 26.8224C268.096 26.9627 268.061 27.1381 267.92 27.2433L267.64 27.4889C267.394 27.6994 267.324 27.559 267.184 27.4187C266.868 27.0679 266.377 26.7873 265.78 26.7873C264.623 26.7873 263.746 27.7344 263.746 28.9622C263.746 30.19 264.623 31.1723 265.78 31.1723C266.938 31.1723 267.043 30.7162 267.394 30.3654C267.569 30.19 267.675 30.2251 267.85 30.3654L268.025 30.4707C268.166 30.5759 268.236 30.7513 268.131 30.8916C267.675 31.6283 266.833 32.1896 265.78 32.1896C264.096 32.1896 262.658 30.8215 262.658 28.9973C262.658 27.1732 264.132 25.7699 265.815 25.7699V25.7349Z" fill="#003C78"/>
<path d="M272.48 25.7349C274.093 25.7349 275.251 26.9276 275.251 28.5413C275.251 30.155 275.251 28.857 275.251 28.9622C275.251 29.1026 275.111 29.2078 274.97 29.2078H270.55C270.621 30.2251 271.498 31.2074 272.585 31.2074C273.673 31.2074 273.743 30.9618 274.093 30.7513C274.304 30.6461 274.409 30.5408 274.514 30.7513C274.62 30.8566 274.69 30.9969 274.76 31.1021C274.865 31.2424 274.935 31.3477 274.69 31.488C274.339 31.7686 273.497 32.1896 272.445 32.1896C270.585 32.1896 269.463 30.7513 269.463 28.9622C269.463 27.1732 270.621 25.7349 272.445 25.7349H272.48ZM274.199 28.3659C274.164 27.4889 273.427 26.682 272.48 26.682C271.533 26.682 270.656 27.4187 270.55 28.3659H274.199Z" fill="#003C78"/>
<path d="M276.654 31.1724C276.724 31.0671 276.83 30.8566 276.865 30.7865C276.935 30.6812 277.11 30.6462 277.286 30.7514C277.286 30.7514 277.952 31.2776 278.724 31.2776C279.496 31.2776 279.706 30.9619 279.706 30.5409C279.706 30.12 279.25 29.7692 278.373 29.3131C277.566 28.9272 276.619 28.366 276.619 27.3486C276.619 26.3313 277.145 25.77 278.549 25.77C279.952 25.77 279.952 26.0507 280.232 26.2611C280.373 26.3664 280.408 26.5769 280.338 26.7523L280.232 26.9978C280.127 27.1732 279.917 27.2083 279.776 27.1381C279.776 27.1381 279.11 26.7873 278.549 26.7873C277.987 26.7873 277.672 27.1381 277.672 27.3837C277.672 27.8748 278.163 28.1204 278.794 28.4361C279.847 28.9272 280.794 29.4184 280.794 30.5058C280.794 31.5933 279.952 32.2248 278.689 32.2248C277.426 32.2248 277.04 31.8038 276.689 31.5232C276.619 31.453 276.584 31.3127 276.619 31.2074L276.654 31.1724Z" fill="#003C78"/>
</svg>
